<svg width="128" height="128" viewBox="0 0 128 128" fill="none" xmlns="http://www.w3.org/2000/svg">
<g opacity="0.1">
<g opacity="0.3">
<path fill-rule="evenodd" clip-rule="evenodd" d="M65.2033 68.6267C66.9529 72.5604 73.4364 78.5839 81.9696 73.6797C90.5028 68.7754 97.8543 54.8005 96.1047 50.8669C94.3551 46.9332 86.0193 47.7201 77.4861 52.6243C68.9529 57.5286 63.4537 64.6931 65.2033 68.6267Z" fill="black"/>
<path fill-rule="evenodd" clip-rule="evenodd" d="M73.85 66.0044C75.0646 67.9962 78.7971 70.2619 83.9404 66.4627C89.0836 62.6634 93.4633 54.6152 92.2487 52.6235C91.0341 50.6317 86.1066 51.7195 80.9634 55.5188C75.8202 59.3181 72.6354 64.0127 73.85 66.0044Z" fill="black"/>
<path fill-rule="evenodd" clip-rule="evenodd" d="M58.8053 66.335C54.5396 66.7659 46.0975 63.9667 46.0359 53.6881C45.9746 43.4094 54.3171 29.5436 58.5828 29.1127C62.8484 28.6819 66.3562 36.6651 66.4177 46.9437C66.4791 57.2224 63.071 65.9042 58.8053 66.335Z" fill="black"/>
<path fill-rule="evenodd" clip-rule="evenodd" d="M55.9765 57.5958C53.4579 57.5255 49.324 55.1694 50.1014 48.0808C50.8789 40.9923 56.0426 32.2845 58.5612 32.3548C61.0798 32.4252 62.722 37.7996 61.9445 44.8882C61.167 51.9767 58.4951 57.6661 55.9765 57.5958Z" fill="black"/>
<path fill-rule="evenodd" clip-rule="evenodd" d="M47.679 91.4061C56.5092 96.5042 66.4507 97.2516 67.7368 95.024C68.272 94.0971 69.8788 91.7911 68.0232 89.8117C65.4197 87.0342 58.4163 84.2651 53.2606 81.2884C47.625 78.0347 42.2 73.4209 38.5658 72.8044C36.5057 72.4549 35.4215 74.1245 34.4505 75.8062C33.1645 78.0336 38.8489 86.308 47.679 91.4061Z" fill="black"/>
<path fill-rule="evenodd" clip-rule="evenodd" d="M50.3537 86.5871C61.8904 93.2478 75.7441 92.9947 82.2874 81.6614C84.7715 77.3589 86.2645 70.9425 86.0197 65.6879C85.6198 57.1011 81.2062 49.6774 74.0492 45.5453C67.4274 41.7222 58.9207 41.4501 51.6488 44.6702C46.2514 47.0603 41.5403 51.6983 38.7527 56.5266C32.2094 67.86 38.8171 79.9264 50.3537 86.5871Z" fill="black"/>
<path fill-rule="evenodd" clip-rule="evenodd" d="M51.8178 88.3717C55.078 89.9508 57.5271 91.3648 63.3476 91.9368C69.1681 92.5088 72.6162 91.3171 75.8669 88.9291C78.9771 86.6443 80.9136 84.0409 81.5062 83.0144C82.0989 81.9879 82.9456 77.7629 79.1765 75.5868C74.7737 74.0695 73.5676 78.8253 69.3625 76.5756C66.1413 74.8524 68.6356 69.1446 62.501 65.6028C55.836 61.7548 53.8637 67.6274 49.3833 64.8624C45.0878 62.2116 49.2443 58.4836 45.4587 55.7635C43.2152 54.4681 39.2828 55.6083 37.4611 58.7637C36.7741 59.9537 35.8604 63.1568 35.7358 65.7594C35.6031 68.532 36.3725 72.1691 38.0248 75.5971C38.7384 77.0775 40.2921 79.4209 42.3255 81.4942C45.0658 84.2882 48.637 86.831 51.8178 88.3717Z" fill="black"/>
<path fill-rule="evenodd" clip-rule="evenodd" d="M61.5903 67.6225C63.7496 68.8692 65.2516 71.0943 64.1745 72.9599C63.1815 74.6799 60.2234 75.7008 58.0755 74.8726L57.011 76.7172C56.8081 77.0686 56.3888 77.2064 56.0745 77.0249C55.7602 76.8434 55.6699 76.4115 55.8728 76.06L56.9505 74.1923C55.2452 72.7058 54.6673 69.7134 55.6383 68.0315C56.7154 66.1659 59.431 66.3758 61.5903 67.6225Z" fill="black"/>
<path fill-rule="evenodd" clip-rule="evenodd" d="M63.8734 80.0422C62.854 81.8078 60.3828 82.1967 58.3158 81.0033C57 80.2436 56.122 78.9597 55.9493 77.7178C55.9352 77.6165 55.9164 77.5121 55.8972 77.4063L55.8594 77.1933C55.8583 77.1864 55.8571 77.1794 55.856 77.1724C55.6804 77.2385 55.501 77.2977 55.3369 77.3642C54.175 77.8356 52.6241 77.7172 51.3083 76.9575C49.2413 75.7642 48.3425 73.4295 49.3618 71.664C49.6622 71.1436 50.1275 71.0415 50.5456 71.4789C50.9184 71.8689 50.5298 72.2805 50.5551 72.774C50.6045 73.7368 50.6045 73.7368 50.807 74.1666C51.126 74.8438 51.7434 75.2895 52.1393 75.5181C52.7078 75.8463 53.2765 76.0484 53.9565 75.985C54.5839 75.9265 54.8358 75.9307 55.2293 75.8075C55.5598 75.704 56.0662 75.4629 56.2321 75.4872C56.3863 75.5097 56.6087 75.4229 56.732 75.6546C56.9036 75.649 56.9783 75.7474 57.0364 75.8503L57.0809 75.9318C57.0955 75.9581 57.1105 75.9827 57.1273 76.004C57.2312 76.1355 57.2756 76.6947 57.3513 77.0326C57.4413 77.435 57.5709 77.651 57.834 78.2236C58.119 78.8443 58.5784 79.2357 59.1469 79.5639C59.5428 79.7925 60.2375 80.1044 60.9835 80.042C61.4569 80.0024 61.4569 80.0024 62.3155 79.5638C62.7555 79.339 62.9177 78.7967 63.4418 78.9245C64.0296 79.068 64.1738 79.5219 63.8734 80.0422Z" fill="black"/>
<path d="M53.8812 61.8989C55.3036 62.7201 57.1965 62.1046 58.109 60.5241C59.0216 58.9435 58.6082 56.9964 57.1858 56.1752C55.7633 55.3539 53.8704 55.9695 52.9579 57.55C52.0453 59.1306 52.4587 61.0776 53.8812 61.8989Z" fill="black"/>
<path d="M70.0705 71.2458C71.493 72.0671 73.3858 71.4515 74.2984 69.871C75.2109 68.2904 74.7975 66.3434 73.3751 65.5221C71.9526 64.7009 70.0597 65.3164 69.1472 66.897C68.2347 68.4775 68.648 70.4246 70.0705 71.2458Z" fill="black"/>
<path d="M58.8084 56.1446C59.5799 57.6487 61.0736 58.3109 62.1446 57.6235C63.2156 56.9362 63.4584 55.1597 62.6869 53.6556C61.9153 52.1514 60.4216 51.4893 59.3506 52.1766C58.2796 52.8639 58.0368 54.6405 58.8084 56.1446Z" fill="black"/>
<path d="M72.5955 59.3762C70.9071 59.4601 69.49 60.5586 69.4303 61.8298C69.3705 63.101 70.6908 64.0635 72.3792 63.9796C74.0676 63.8957 75.4847 62.7972 75.5444 61.526C75.6042 60.2548 74.2839 59.2923 72.5955 59.3762Z" fill="black"/>
</g>
</g>
</svg>
